<svg xmlns="http://www.w3.org/2000/svg" width="1920" height="1080" viewBox="0 0 1920 1080">
  <defs>
    <linearGradient id="grad1" x1="0%" y1="0%" x2="100%" y2="100%">
      <stop offset="0%" style="stop-color:#8B5A2B;stop-opacity:0.8" />
      <stop offset="100%" style="stop-color:#D2B48C;stop-opacity:0.6" />
    </linearGradient>
    <pattern id="pattern1" width="50" height="50" patternUnits="userSpaceOnUse" patternTransform="rotate(45)">
      <path d="M0,0 L10,0 L10,10 L0,10 Z" fill="none" stroke="rgba(210,180,140,0.2)" stroke-width="1"/>
    </pattern>
  </defs>
  <rect width="100%" height="100%" fill="url(#grad1)"/>
  <rect width="100%" height="100%" fill="url(#pattern1)"/>
  <g opacity="0.3">
    <path d="M400,300 C500,200 600,400 700,300 S800,500 900,400 S1000,600 1100,500" stroke="#F5DEB3" stroke-width="3" fill="none"/>
    <path d="M300,600 C400,500 500,700 600,600 S700,800 800,700 S900,900 1000,800" stroke="#F5DEB3" stroke-width="2" fill="none"/>
    <circle cx="1600" cy="300" r="100" fill="rgba(255,255,255,0.1)"/>
    <circle cx="300" cy="800" r="150" fill="rgba(255,255,255,0.05)"/>
  </g>
  <g opacity="0.7">
    <path d="M1500,200 L1550,250 L1500,300 L1450,250 Z" fill="#D2B48C"/>
    <path d="M200,400 L250,450 L200,500 L150,450 Z" fill="#D2B48C"/>
    <path d="M1700,700 L1750,750 L1700,800 L1650,750 Z" fill="#D2B48C"/>
  </g>
</svg>