<svg xmlns="http://www.w3.org/2000/svg" width="120" height="120" viewBox="0 0 24 24" fill="none" stroke="#cccccc" stroke-width="1" stroke-linecap="round" stroke-linejoin="round">
  <path d="M19 5h-14a2 2 0 0 0-2 2v10a2 2 0 0 0 2 2h14a2 2 0 0 0 2-2v-10a2 2 0 0 0-2-2z"></path>
  <path d="M3 7l9 6 9-6"></path>
  <path d="M12 13v4"></path>
  <circle cx="12" cy="19" r="1"></circle>
  <path d="M8 10h.01"></path>
  <path d="M12 10h.01"></path>
  <path d="M16 10h.01"></path>
  <path d="M5 16h14"></path>
</svg> 