<svg xmlns="http://www.w3.org/2000/svg" width="1920" height="1080" viewBox="0 0 1920 1080">
  <defs>
    <linearGradient id="grad2" x1="0%" y1="0%" x2="100%" y2="100%">
      <stop offset="0%" style="stop-color:#8B0000;stop-opacity:0.8" />
      <stop offset="100%" style="stop-color:#FF4500;stop-opacity:0.6" />
    </linearGradient>
    <pattern id="pattern2" width="60" height="60" patternUnits="userSpaceOnUse" patternTransform="rotate(30)">
      <path d="M0,0 L15,0 L15,15 L0,15 Z" fill="none" stroke="rgba(255,180,140,0.2)" stroke-width="1"/>
    </pattern>
  </defs>
  <rect width="100%" height="100%" fill="url(#grad2)"/>
  <rect width="100%" height="100%" fill="url(#pattern2)"/>
  <g opacity="0.3">
    <circle cx="960" cy="540" r="300" fill="rgba(255,255,255,0.05)"/>
    <circle cx="960" cy="540" r="200" fill="rgba(255,255,255,0.05)"/>
    <circle cx="960" cy="540" r="100" fill="rgba(255,255,255,0.05)"/>
  </g>
  <g opacity="0.4">
    <path d="M100,100 L150,150 L100,200 L50,150 Z" fill="#FFD700"/>
    <path d="M1800,100 L1850,150 L1800,200 L1750,150 Z" fill="#FFD700"/>
    <path d="M100,900 L150,950 L100,1000 L50,950 Z" fill="#FFD700"/>
    <path d="M1800,900 L1850,950 L1800,1000 L1750,950 Z" fill="#FFD700"/>
  </g>
  <g opacity="0.2">
    <path d="M960,100 C1060,200 1160,100 1260,200 S1360,100 1460,200" stroke="#FFD700" stroke-width="2" fill="none"/>
    <path d="M960,980 C860,880 760,980 660,880 S560,980 460,880" stroke="#FFD700" stroke-width="2" fill="none"/>
  </g>
</svg>